<mxfile host="app.diagrams.net" modified="2022-05-09T04:15:57.035Z" agent="5.0 (Windows NT 10.0; Win64; x64) AppleWebKit/537.36 (KHTML, like Gecko) Chrome/101.0.4951.54 Safari/537.36" etag="sCsN9wFJj9ABVu9IrDgz" version="17.5.0" type="github">
  <diagram id="HhSBu4xU89t8UF6Tg7yB" name="Page-1">
    <mxGraphModel dx="1422" dy="772" grid="1" gridSize="10" guides="1" tooltips="1" connect="1" arrows="1" fold="1" page="1" pageScale="1" pageWidth="850" pageHeight="1100" math="0" shadow="0">
      <root>
        <mxCell id="0" />
        <mxCell id="1" parent="0" />
        <mxCell id="-QbIsuQ6W7ycgYoETqVY-3" value="" style="edgeStyle=orthogonalEdgeStyle;rounded=0;orthogonalLoop=1;jettySize=auto;html=1;" edge="1" parent="1" source="-QbIsuQ6W7ycgYoETqVY-1" target="-QbIsuQ6W7ycgYoETqVY-2">
          <mxGeometry relative="1" as="geometry" />
        </mxCell>
        <mxCell id="-QbIsuQ6W7ycgYoETqVY-1" value="" style="shape=cylinder3;whiteSpace=wrap;html=1;boundedLbl=1;backgroundOutline=1;size=15;" vertex="1" parent="1">
          <mxGeometry x="280" y="360" width="60" height="80" as="geometry" />
        </mxCell>
        <mxCell id="-QbIsuQ6W7ycgYoETqVY-2" value="" style="whiteSpace=wrap;html=1;" vertex="1" parent="1">
          <mxGeometry x="250" y="210" width="120" height="60" as="geometry" />
        </mxCell>
      </root>
    </mxGraphModel>
  </diagram>
</mxfile>
